<svg width="116" height="40" viewBox="0 0 116 40" fill="none" xmlns="http://www.w3.org/2000/svg">
                    <path d="M8.4 28L12.8 13.6H16.86L21.26 28H18.46L14.54 15.3H15.06L11.2 28H8.4ZM11.04 25V22.46H18.64V25H11.04ZM26.4323 28.3C25.439 28.3 24.569 28.05 23.8223 27.55C23.0757 27.05 22.4923 26.37 22.0723 25.51C21.659 24.65 21.4523 23.68 21.4523 22.6C21.4523 21.5 21.6623 20.5233 22.0823 19.67C22.509 18.81 23.1057 18.1333 23.8723 17.64C24.639 17.1467 25.539 16.9 26.5723 16.9C27.599 16.9 28.4623 17.15 29.1623 17.65C29.8623 18.15 30.3923 18.83 30.7523 19.69C31.1123 20.55 31.2923 21.52 31.2923 22.6C31.2923 23.68 31.109 24.65 30.7423 25.51C30.3823 26.37 29.8423 27.05 29.1223 27.55C28.4023 28.05 27.5057 28.3 26.4323 28.3ZM26.8723 25.88C27.479 25.88 27.9623 25.7433 28.3223 25.47C28.689 25.1967 28.9523 24.8133 29.1123 24.32C29.2723 23.8267 29.3523 23.2533 29.3523 22.6C29.3523 21.9467 29.2723 21.3733 29.1123 20.88C28.9523 20.3867 28.6957 20.0033 28.3423 19.73C27.9957 19.4567 27.539 19.32 26.9723 19.32C26.3657 19.32 25.8657 19.47 25.4723 19.77C25.0857 20.0633 24.799 20.46 24.6123 20.96C24.4257 21.4533 24.3323 22 24.3323 22.6C24.3323 23.2067 24.4223 23.76 24.6023 24.26C24.7823 24.7533 25.059 25.1467 25.4323 25.44C25.8057 25.7333 26.2857 25.88 26.8723 25.88ZM29.3523 28V20.6H29.0123V13.6H31.7523V28H29.3523ZM46.5523 28V21.62C46.5523 20.9067 46.3823 20.3533 46.0423 19.96C45.709 19.56 45.2457 19.36 44.6523 19.36C44.2723 19.36 43.9423 19.45 43.6623 19.63C43.3823 19.8033 43.1623 20.05 43.0023 20.37C42.849 20.6833 42.7723 21.0467 42.7723 21.46L41.6323 20.7C41.6323 19.96 41.8057 19.3067 42.1523 18.74C42.5057 18.1733 42.9757 17.7333 43.5623 17.42C44.1557 17.1 44.8123 16.94 45.5323 16.94C46.7657 16.94 47.6957 17.3067 48.3223 18.04C48.9557 18.7667 49.2723 19.72 49.2723 20.9V28H46.5523ZM33.5323 28V17.2H35.9323V20.78H36.2723V28H33.5323ZM40.0523 28V21.62C40.0523 20.9067 39.8823 20.3533 39.5423 19.96C39.209 19.56 38.7457 19.36 38.1523 19.36C37.5857 19.36 37.129 19.5567 36.7823 19.95C36.4423 20.3367 36.2723 20.84 36.2723 21.46L35.1323 20.66C35.1323 19.9533 35.309 19.32 35.6623 18.76C36.0157 18.2 36.489 17.7567 37.0823 17.43C37.6823 17.1033 38.3523 16.94 39.0923 16.94C39.939 16.94 40.6323 17.12 41.1723 17.48C41.719 17.84 42.1223 18.32 42.3823 18.92C42.6423 19.52 42.7723 20.18 42.7723 20.9V28H40.0523ZM51.0727 15.7V13.3H53.7927V15.7H51.0727ZM51.0727 28V17.2H53.7927V28H51.0727ZM63.1506 28V22.9C63.1506 22.6533 63.1373 22.34 63.1106 21.96C63.084 21.5733 63.0006 21.1867 62.8606 20.8C62.7206 20.4133 62.4906 20.09 62.1706 19.83C61.8573 19.57 61.4106 19.44 60.8306 19.44C60.5973 19.44 60.3473 19.4767 60.0806 19.55C59.814 19.6233 59.564 19.7667 59.3306 19.98C59.0973 20.1867 58.904 20.4933 58.7506 20.9C58.604 21.3067 58.5306 21.8467 58.5306 22.52L56.9706 21.78C56.9706 20.9267 57.144 20.1267 57.4906 19.38C57.8373 18.6333 58.3573 18.03 59.0506 17.57C59.7506 17.11 60.6306 16.88 61.6906 16.88C62.5373 16.88 63.2273 17.0233 63.7606 17.31C64.294 17.5967 64.7073 17.96 65.0006 18.4C65.3006 18.84 65.514 19.3 65.6406 19.78C65.7673 20.2533 65.844 20.6867 65.8706 21.08C65.8973 21.4733 65.9106 21.76 65.9106 21.94V28H63.1506ZM55.7706 28V17.2H58.1906V20.78H58.5306V28H55.7706Z" fill="#0E1422"/>
                </svg>